<svg width="23" height="36" viewBox="0 0 23 36" fill="none" xmlns="http://www.w3.org/2000/svg">
<g clip-path="url(#clip0_2003_447)">
<path d="M7.20007 1.59231C7.20007 5.91243 7.76439 7.33563 10.586 10.2812L14.254 14.0614C15.8757 15.7309 16.1937 16.6142 16.1937 17.6946C16.1937 18.8722 15.594 20.3453 14.0072 21.867L12.4195 23.4392L16.6873 27.9065L20.461 23.2914C22.2247 21.1314 23 19.1191 23 16.6641C23 13.4244 21.9067 11.9999 19.4027 9.6441L13.2311 3.89949C12.2081 2.91764 11.7495 1.9844 11.5381 0.315582L7.20007 1.59231Z" fill="#FFDD33"/>
<path d="M6.74193 7.72189L2.96865 12.2384C1.24078 14.2999 0.5 16.3129 0.5 18.9642C0.5 21.6149 1.20539 23.3815 3.03896 25.051L8.7175 30.2551C10.8337 32.2182 11.4334 33.2007 11.892 35.3115L16.0885 34.2318C16.1239 33.7405 16.1239 33.2499 16.1239 32.955C16.1239 29.3225 14.7485 27.3096 11.8562 24.2655L8.50612 20.7801C7.44779 19.6998 7.16563 18.5708 7.16563 17.7367C7.16563 16.4108 7.69456 15.4296 8.89397 14.2507L10.9748 12.1891L6.74193 7.72189V7.72189Z" fill="#FFDD33"/>
<path d="M9.10768 15.6324C8.50798 16.2215 8.15552 17.1055 8.15552 17.7925C8.15552 18.333 8.43768 19.4127 9.35446 20.3453L11.6117 22.6032L13.4104 20.935C14.8216 19.6576 15.2802 18.5773 15.2802 17.7438C15.2802 17.007 14.9622 16.32 13.7633 15.0919L11.7533 13.0796L9.10768 15.6324V15.6324ZM19.6183 28.6874C20.1826 28.6874 20.6762 29.3245 20.6762 30.1592C20.6762 30.9939 20.2175 31.6316 19.6532 31.6316C19.3729 31.6304 19.1044 31.4749 18.9062 31.199C18.708 30.9232 18.5962 30.5493 18.5954 30.1592C18.5949 29.3744 19.054 28.6874 19.6183 28.6874ZM20.4997 30.1611C20.4997 29.5228 20.1114 28.9836 19.6174 28.9836C19.1587 28.9836 18.7714 29.5228 18.7714 30.1611C18.7714 30.7995 19.1587 31.3393 19.6532 31.3393C20.1468 31.3393 20.4997 30.7995 20.4997 30.1611V30.1611ZM19.1993 30.9524V29.3342H19.7878C20.0969 29.3342 20.1537 29.6511 20.1537 29.7917C20.1537 29.9686 20.0886 30.1229 19.9731 30.1767C20.069 30.2357 20.1207 30.2849 20.1207 30.5869C20.1207 30.8235 20.1207 30.8824 20.1728 30.9097V30.9524H19.9037C19.8833 30.846 19.8747 30.7359 19.8781 30.6258C19.8781 30.4042 19.8679 30.3186 19.6886 30.3186H19.4376V30.9524H19.1993V30.9524ZM19.4381 30.0464H19.7221C19.8483 30.0464 19.9102 29.9849 19.9102 29.8254C19.9102 29.7399 19.8828 29.6135 19.7403 29.6135H19.4381V30.0464Z" fill="#FFDD33"/>
</g>
<defs>
<clipPath id="clip0_2003_447">
<rect width="22.5" height="35" fill="white" transform="translate(0.5 0.313522)"/>
</clipPath>
</defs>
</svg>
